<svg xmlns="http://www.w3.org/2000/svg" xmlns:xlink="http://www.w3.org/1999/xlink" width="500" zoomAndPan="magnify" viewBox="0 0 375 112.499997" height="150" preserveAspectRatio="xMidYMid meet" version="1.2"><defs><clipPath id="8175f8f149"><path d="M 21 0 L 363 0 L 363 112.003906 L 21 112.003906 Z M 21 0 "/></clipPath><clipPath id="9070e3eb67"><rect x="0" width="342" y="0" height="113"/></clipPath></defs><g id="7fced8fb24"><g clip-rule="nonzero" clip-path="url(#8175f8f149)"><g transform="matrix(1,0,0,1,21,0)"><g clip-path="url(#9070e3eb67)"><g style="fill:#000000;fill-opacity:1;"><g transform="translate(1.823642, 90.517218)"><path style="stroke:none" d="M 39.183594 -50.007812 L 39.183594 -65.492188 L 22.742188 -65.492188 L 22.742188 -75.765625 L 6.441406 -75.765625 L 6.441406 0 L 22.742188 0 L 22.742188 -50.007812 Z M 39.183594 -50.007812 "/></g></g><g style="fill:#000000;fill-opacity:1;"><g transform="translate(43.748656, 90.517218)"><path style="stroke:none" d="M 39.183594 -50.007812 L 39.183594 -65.492188 L 6.441406 -65.492188 L 6.441406 0 L 22.742188 0 L 22.742188 -50.007812 Z M 39.183594 -50.007812 "/></g></g><g style="fill:#000000;fill-opacity:1;"><g transform="translate(86.084693, 90.517218)"><path style="stroke:none" d="M 72.890625 -65.492188 L 55.765625 -65.492188 L 40.828125 -20.6875 C 39.324219 -16.304688 38.636719 -15.621094 34.800781 -15.480469 L 22.742188 -15.480469 L 22.742188 -65.492188 L 6.441406 -65.492188 L 6.441406 0 L 35.074219 0 C 50.695312 0 51.515625 -1.234375 56.449219 -16.03125 Z M 72.890625 -65.492188 "/></g></g><g style="fill:#000000;fill-opacity:1;"><g transform="translate(160.344028, 90.517218)"><path style="stroke:none" d="M 22.058594 -65.492188 L 5.753906 -65.492188 L 5.753906 -12.332031 C 5.753906 -0.820312 13.699219 0 22.195312 0 L 71.246094 0 L 71.246094 -65.492188 L 54.941406 -65.492188 L 54.941406 -15.480469 L 28.085938 -15.480469 C 24.386719 -15.480469 22.058594 -15.621094 22.058594 -19.457031 Z M 22.058594 -65.492188 "/></g></g><g style="fill:#000000;fill-opacity:1;"><g transform="translate(238.028612, 90.517218)"><path style="stroke:none" d="M 5.753906 -12.332031 C 5.753906 -0.820312 13.699219 0 22.195312 0 L 71.246094 0 L 71.246094 -15.480469 L 28.085938 -15.480469 C 24.386719 -15.480469 22.058594 -15.621094 22.058594 -19.457031 L 22.058594 -25.074219 L 71.246094 -25.074219 L 71.246094 -53.160156 C 71.246094 -64.667969 63.300781 -65.492188 54.804688 -65.492188 L 22.195312 -65.492188 C 13.699219 -65.492188 5.753906 -64.667969 5.753906 -53.160156 Z M 22.058594 -46.035156 C 22.058594 -49.871094 24.386719 -50.007812 28.085938 -50.007812 L 48.914062 -50.007812 C 52.613281 -50.007812 54.941406 -49.871094 54.941406 -46.035156 L 54.941406 -40.554688 L 22.058594 -40.554688 Z M 22.058594 -46.035156 "/></g></g><g style="fill:#000000;fill-opacity:1;"><g transform="translate(315.028145, 90.517218)"><path style="stroke:none" d="M 20.824219 0 L 20.824219 -15.480469 L 4.519531 -15.480469 L 4.519531 0 Z M 20.824219 0 "/></g></g></g></g></g></g></svg>