<svg xmlns="http://www.w3.org/2000/svg" xmlns:xlink="http://www.w3.org/1999/xlink" width="500" zoomAndPan="magnify" viewBox="0 0 375 112.499997" height="150" preserveAspectRatio="xMidYMid meet" version="1.2"><defs><clipPath id="eead827328"><rect x="0" width="213" y="0" height="83"/></clipPath><clipPath id="214b600fc7"><rect x="0" width="140" y="0" height="43"/></clipPath></defs><g id="1eb0774bed"><g transform="matrix(1,0,0,1,81,0)"><g clip-path="url(#eead827328)"><g style="fill:#ffffff;fill-opacity:1;"><g transform="translate(1.047065, 58.44532)"><path style="stroke:none" d="M 24.410156 -31.152344 L 24.410156 -40.796875 L 14.167969 -40.796875 L 14.167969 -47.199219 L 4.011719 -47.199219 L 4.011719 0 L 14.167969 0 L 14.167969 -31.152344 Z M 24.410156 -31.152344 "/></g></g><g style="fill:#ffffff;fill-opacity:1;"><g transform="translate(27.16346, 58.44532)"><path style="stroke:none" d="M 24.410156 -31.152344 L 24.410156 -40.796875 L 4.011719 -40.796875 L 4.011719 0 L 14.167969 0 L 14.167969 -31.152344 Z M 24.410156 -31.152344 "/></g></g><g style="fill:#ffffff;fill-opacity:1;"><g transform="translate(53.535895, 58.44532)"><path style="stroke:none" d="M 45.40625 -40.796875 L 34.738281 -40.796875 L 25.433594 -12.886719 C 24.496094 -10.15625 24.070312 -9.730469 21.679688 -9.644531 L 14.167969 -9.644531 L 14.167969 -40.796875 L 4.011719 -40.796875 L 4.011719 0 L 21.847656 0 C 31.578125 0 32.089844 -0.769531 35.164062 -9.984375 Z M 45.40625 -40.796875 "/></g></g><g style="fill:#ffffff;fill-opacity:1;"><g transform="translate(99.794345, 58.44532)"><path style="stroke:none" d="M 13.742188 -40.796875 L 3.585938 -40.796875 L 3.585938 -7.679688 C 3.585938 -0.511719 8.535156 0 13.828125 0 L 44.382812 0 L 44.382812 -40.796875 L 34.226562 -40.796875 L 34.226562 -9.644531 L 17.496094 -9.644531 C 15.191406 -9.644531 13.742188 -9.730469 13.742188 -12.121094 Z M 13.742188 -40.796875 "/></g></g><g style="fill:#ffffff;fill-opacity:1;"><g transform="translate(148.186489, 58.44532)"><path style="stroke:none" d="M 3.585938 -7.679688 C 3.585938 -0.511719 8.535156 0 13.828125 0 L 44.382812 0 L 44.382812 -9.644531 L 17.496094 -9.644531 C 15.191406 -9.644531 13.742188 -9.730469 13.742188 -12.121094 L 13.742188 -15.617188 L 44.382812 -15.617188 L 44.382812 -33.117188 C 44.382812 -40.285156 39.429688 -40.796875 34.140625 -40.796875 L 13.828125 -40.796875 C 8.535156 -40.796875 3.585938 -40.285156 3.585938 -33.117188 Z M 13.742188 -28.675781 C 13.742188 -31.066406 15.191406 -31.152344 17.496094 -31.152344 L 30.46875 -31.152344 C 32.773438 -31.152344 34.226562 -31.066406 34.226562 -28.675781 L 34.226562 -25.261719 L 13.742188 -25.261719 Z M 13.742188 -28.675781 "/></g></g><g style="fill:#ffffff;fill-opacity:1;"><g transform="translate(196.151894, 58.44532)"><path style="stroke:none" d="M 12.972656 0 L 12.972656 -9.644531 L 2.816406 -9.644531 L 2.816406 0 Z M 12.972656 0 "/></g></g></g></g><g transform="matrix(1,0,0,1,138,61)"><g clip-path="url(#214b600fc7)"><g style="fill:#ffde59;fill-opacity:1;"><g transform="translate(0.404822, 16.202133)"><path style="stroke:none" d="M 1.046875 0 L 1.046875 -10.78125 L 5.03125 -10.78125 C 5.894531 -10.78125 6.609375 -10.632812 7.171875 -10.34375 C 7.742188 -10.0625 8.164062 -9.664062 8.4375 -9.15625 C 8.71875 -8.65625 8.859375 -8.09375 8.859375 -7.46875 C 8.859375 -6.875 8.722656 -6.328125 8.453125 -5.828125 C 8.191406 -5.328125 7.773438 -4.925781 7.203125 -4.625 C 6.640625 -4.320312 5.914062 -4.171875 5.03125 -4.171875 L 3.015625 -4.171875 L 3.015625 0 Z M 3.015625 -5.78125 L 4.921875 -5.78125 C 5.609375 -5.78125 6.101562 -5.929688 6.40625 -6.234375 C 6.707031 -6.535156 6.859375 -6.945312 6.859375 -7.46875 C 6.859375 -8 6.707031 -8.414062 6.40625 -8.71875 C 6.101562 -9.03125 5.609375 -9.1875 4.921875 -9.1875 L 3.015625 -9.1875 Z M 3.015625 -5.78125 "/></g></g><g style="fill:#ffde59;fill-opacity:1;"><g transform="translate(8.998543, 16.202133)"><path style="stroke:none" d="M 6.09375 0.1875 C 5.019531 0.1875 4.078125 -0.046875 3.265625 -0.515625 C 2.460938 -0.992188 1.832031 -1.648438 1.375 -2.484375 C 0.914062 -3.328125 0.6875 -4.296875 0.6875 -5.390625 C 0.6875 -6.492188 0.914062 -7.460938 1.375 -8.296875 C 1.832031 -9.128906 2.460938 -9.78125 3.265625 -10.25 C 4.078125 -10.726562 5.019531 -10.96875 6.09375 -10.96875 C 7.164062 -10.96875 8.109375 -10.726562 8.921875 -10.25 C 9.734375 -9.78125 10.363281 -9.128906 10.8125 -8.296875 C 11.269531 -7.460938 11.5 -6.492188 11.5 -5.390625 C 11.5 -4.296875 11.269531 -3.328125 10.8125 -2.484375 C 10.363281 -1.648438 9.734375 -0.992188 8.921875 -0.515625 C 8.109375 -0.046875 7.164062 0.1875 6.09375 0.1875 Z M 6.09375 -1.59375 C 7.125 -1.59375 7.941406 -1.929688 8.546875 -2.609375 C 9.160156 -3.285156 9.46875 -4.210938 9.46875 -5.390625 C 9.46875 -6.566406 9.160156 -7.492188 8.546875 -8.171875 C 7.941406 -8.859375 7.125 -9.203125 6.09375 -9.203125 C 5.070312 -9.203125 4.253906 -8.859375 3.640625 -8.171875 C 3.023438 -7.492188 2.71875 -6.566406 2.71875 -5.390625 C 2.71875 -4.210938 3.023438 -3.285156 3.640625 -2.609375 C 4.253906 -1.929688 5.070312 -1.59375 6.09375 -1.59375 Z M 6.09375 -1.59375 "/></g></g><g style="fill:#ffde59;fill-opacity:1;"><g transform="translate(20.426033, 16.202133)"><path style="stroke:none" d="M 3.234375 0 L 0.390625 -10.78125 L 2.5 -10.78125 L 4.4375 -2.203125 L 6.71875 -10.78125 L 8.890625 -10.78125 L 11.109375 -2.203125 L 13.046875 -10.78125 L 15.171875 -10.78125 L 12.25 0 L 9.90625 0 L 7.765625 -8 L 5.5625 0 Z M 3.234375 0 "/></g></g><g style="fill:#ffde59;fill-opacity:1;"><g transform="translate(35.226322, 16.202133)"><path style="stroke:none" d="M 1.046875 0 L 1.046875 -10.78125 L 8.09375 -10.78125 L 8.09375 -9.203125 L 3.015625 -9.203125 L 3.015625 -6.234375 L 7.625 -6.234375 L 7.625 -4.703125 L 3.015625 -4.703125 L 3.015625 -1.59375 L 8.09375 -1.59375 L 8.09375 0 Z M 1.046875 0 "/></g></g><g style="fill:#ffde59;fill-opacity:1;"><g transform="translate(43.37341, 16.202133)"><path style="stroke:none" d="M 1.046875 0 L 1.046875 -10.78125 L 5 -10.78125 C 5.863281 -10.78125 6.578125 -10.632812 7.140625 -10.34375 C 7.703125 -10.050781 8.117188 -9.65625 8.390625 -9.15625 C 8.671875 -8.65625 8.8125 -8.101562 8.8125 -7.5 C 8.8125 -6.84375 8.640625 -6.242188 8.296875 -5.703125 C 7.953125 -5.160156 7.414062 -4.765625 6.6875 -4.515625 L 8.921875 0 L 6.65625 0 L 4.65625 -4.25 L 3.015625 -4.25 L 3.015625 0 Z M 3.015625 -5.703125 L 4.890625 -5.703125 C 5.546875 -5.703125 6.023438 -5.859375 6.328125 -6.171875 C 6.640625 -6.492188 6.796875 -6.914062 6.796875 -7.4375 C 6.796875 -7.957031 6.644531 -8.367188 6.34375 -8.671875 C 6.039062 -8.984375 5.550781 -9.140625 4.875 -9.140625 L 3.015625 -9.140625 Z M 3.015625 -5.703125 "/></g></g><g style="fill:#ffde59;fill-opacity:1;"><g transform="translate(52.213541, 16.202133)"><path style="stroke:none" d="M 1.046875 0 L 1.046875 -10.78125 L 3.015625 -10.78125 L 3.015625 0 Z M 1.046875 0 "/></g></g><g style="fill:#ffde59;fill-opacity:1;"><g transform="translate(55.524742, 16.202133)"><path style="stroke:none" d="M 1.046875 0 L 1.046875 -10.78125 L 3.015625 -10.78125 L 8.09375 -3.1875 L 8.09375 -10.78125 L 10.0625 -10.78125 L 10.0625 0 L 8.09375 0 L 3.015625 -7.578125 L 3.015625 0 Z M 1.046875 0 "/></g></g><g style="fill:#ffde59;fill-opacity:1;"><g transform="translate(65.874167, 16.202133)"><path style="stroke:none" d="M 5.765625 0.1875 C 4.742188 0.1875 3.851562 -0.0390625 3.09375 -0.5 C 2.332031 -0.96875 1.738281 -1.613281 1.3125 -2.4375 C 0.894531 -3.269531 0.6875 -4.234375 0.6875 -5.328125 C 0.6875 -6.441406 0.90625 -7.421875 1.34375 -8.265625 C 1.78125 -9.109375 2.398438 -9.769531 3.203125 -10.25 C 4.015625 -10.726562 4.972656 -10.96875 6.078125 -10.96875 C 7.347656 -10.96875 8.394531 -10.664062 9.21875 -10.0625 C 10.050781 -9.457031 10.59375 -8.617188 10.84375 -7.546875 L 8.640625 -7.546875 C 8.472656 -8.046875 8.175781 -8.4375 7.75 -8.71875 C 7.320312 -9.007812 6.765625 -9.15625 6.078125 -9.15625 C 5.003906 -9.15625 4.175781 -8.8125 3.59375 -8.125 C 3.007812 -7.445312 2.71875 -6.507812 2.71875 -5.3125 C 2.71875 -4.125 3.003906 -3.203125 3.578125 -2.546875 C 4.160156 -1.898438 4.953125 -1.578125 5.953125 -1.578125 C 6.921875 -1.578125 7.65625 -1.835938 8.15625 -2.359375 C 8.65625 -2.890625 8.957031 -3.585938 9.0625 -4.453125 L 6.328125 -4.453125 L 6.328125 -5.9375 L 11.046875 -5.9375 L 11.046875 0 L 9.234375 0 L 9.078125 -1.421875 C 8.722656 -0.898438 8.285156 -0.5 7.765625 -0.21875 C 7.242188 0.0507812 6.578125 0.1875 5.765625 0.1875 Z M 5.765625 0.1875 "/></g></g><g style="fill:#ffde59;fill-opacity:1;"><g transform="translate(77.024435, 16.202133)"><path style="stroke:none" d=""/></g></g><g style="fill:#ffde59;fill-opacity:1;"><g transform="translate(79.935208, 16.202133)"><path style="stroke:none" d="M 5.765625 0.1875 C 4.742188 0.1875 3.851562 -0.0390625 3.09375 -0.5 C 2.332031 -0.96875 1.738281 -1.613281 1.3125 -2.4375 C 0.894531 -3.269531 0.6875 -4.234375 0.6875 -5.328125 C 0.6875 -6.441406 0.90625 -7.421875 1.34375 -8.265625 C 1.78125 -9.109375 2.398438 -9.769531 3.203125 -10.25 C 4.015625 -10.726562 4.972656 -10.96875 6.078125 -10.96875 C 7.347656 -10.96875 8.394531 -10.664062 9.21875 -10.0625 C 10.050781 -9.457031 10.59375 -8.617188 10.84375 -7.546875 L 8.640625 -7.546875 C 8.472656 -8.046875 8.175781 -8.4375 7.75 -8.71875 C 7.320312 -9.007812 6.765625 -9.15625 6.078125 -9.15625 C 5.003906 -9.15625 4.175781 -8.8125 3.59375 -8.125 C 3.007812 -7.445312 2.71875 -6.507812 2.71875 -5.3125 C 2.71875 -4.125 3.003906 -3.203125 3.578125 -2.546875 C 4.160156 -1.898438 4.953125 -1.578125 5.953125 -1.578125 C 6.921875 -1.578125 7.65625 -1.835938 8.15625 -2.359375 C 8.65625 -2.890625 8.957031 -3.585938 9.0625 -4.453125 L 6.328125 -4.453125 L 6.328125 -5.9375 L 11.046875 -5.9375 L 11.046875 0 L 9.234375 0 L 9.078125 -1.421875 C 8.722656 -0.898438 8.285156 -0.5 7.765625 -0.21875 C 7.242188 0.0507812 6.578125 0.1875 5.765625 0.1875 Z M 5.765625 0.1875 "/></g></g><g style="fill:#ffde59;fill-opacity:1;"><g transform="translate(91.085476, 16.202133)"><path style="stroke:none" d="M 1.046875 0 L 1.046875 -10.78125 L 3.015625 -10.78125 L 3.015625 -1.546875 L 7.796875 -1.546875 L 7.796875 0 Z M 1.046875 0 "/></g></g><g style="fill:#ffde59;fill-opacity:1;"><g transform="translate(98.816743, 16.202133)"><path style="stroke:none" d="M 6.09375 0.1875 C 5.019531 0.1875 4.078125 -0.046875 3.265625 -0.515625 C 2.460938 -0.992188 1.832031 -1.648438 1.375 -2.484375 C 0.914062 -3.328125 0.6875 -4.296875 0.6875 -5.390625 C 0.6875 -6.492188 0.914062 -7.460938 1.375 -8.296875 C 1.832031 -9.128906 2.460938 -9.78125 3.265625 -10.25 C 4.078125 -10.726562 5.019531 -10.96875 6.09375 -10.96875 C 7.164062 -10.96875 8.109375 -10.726562 8.921875 -10.25 C 9.734375 -9.78125 10.363281 -9.128906 10.8125 -8.296875 C 11.269531 -7.460938 11.5 -6.492188 11.5 -5.390625 C 11.5 -4.296875 11.269531 -3.328125 10.8125 -2.484375 C 10.363281 -1.648438 9.734375 -0.992188 8.921875 -0.515625 C 8.109375 -0.046875 7.164062 0.1875 6.09375 0.1875 Z M 6.09375 -1.59375 C 7.125 -1.59375 7.941406 -1.929688 8.546875 -2.609375 C 9.160156 -3.285156 9.46875 -4.210938 9.46875 -5.390625 C 9.46875 -6.566406 9.160156 -7.492188 8.546875 -8.171875 C 7.941406 -8.859375 7.125 -9.203125 6.09375 -9.203125 C 5.070312 -9.203125 4.253906 -8.859375 3.640625 -8.171875 C 3.023438 -7.492188 2.71875 -6.566406 2.71875 -5.390625 C 2.71875 -4.210938 3.023438 -3.285156 3.640625 -2.609375 C 4.253906 -1.929688 5.070312 -1.59375 6.09375 -1.59375 Z M 6.09375 -1.59375 "/></g></g><g style="fill:#ffde59;fill-opacity:1;"><g transform="translate(110.244234, 16.202133)"><path style="stroke:none" d="M 1.046875 0 L 1.046875 -10.78125 L 5.375 -10.78125 C 6.5 -10.78125 7.351562 -10.519531 7.9375 -10 C 8.53125 -9.488281 8.828125 -8.828125 8.828125 -8.015625 C 8.828125 -7.335938 8.644531 -6.796875 8.28125 -6.390625 C 7.914062 -5.984375 7.472656 -5.707031 6.953125 -5.5625 C 7.566406 -5.4375 8.070312 -5.128906 8.46875 -4.640625 C 8.875 -4.148438 9.078125 -3.582031 9.078125 -2.9375 C 9.078125 -2.082031 8.765625 -1.378906 8.140625 -0.828125 C 7.523438 -0.273438 6.65625 0 5.53125 0 Z M 3.015625 -6.25 L 5.078125 -6.25 C 5.640625 -6.25 6.066406 -6.378906 6.359375 -6.640625 C 6.660156 -6.898438 6.8125 -7.265625 6.8125 -7.734375 C 6.8125 -8.179688 6.664062 -8.535156 6.375 -8.796875 C 6.082031 -9.066406 5.640625 -9.203125 5.046875 -9.203125 L 3.015625 -9.203125 Z M 3.015625 -1.609375 L 5.21875 -1.609375 C 5.800781 -1.609375 6.253906 -1.742188 6.578125 -2.015625 C 6.910156 -2.285156 7.078125 -2.664062 7.078125 -3.15625 C 7.078125 -3.65625 6.90625 -4.050781 6.5625 -4.34375 C 6.21875 -4.632812 5.757812 -4.78125 5.1875 -4.78125 L 3.015625 -4.78125 Z M 3.015625 -1.609375 "/></g></g><g style="fill:#ffde59;fill-opacity:1;"><g transform="translate(119.207571, 16.202133)"><path style="stroke:none" d="M 0.359375 0 L 4.296875 -10.78125 L 6.515625 -10.78125 L 10.453125 0 L 8.359375 0 L 7.5 -2.5 L 3.296875 -2.5 L 2.421875 0 Z M 3.84375 -4.03125 L 6.96875 -4.03125 L 5.390625 -8.515625 Z M 3.84375 -4.03125 "/></g></g><g style="fill:#ffde59;fill-opacity:1;"><g transform="translate(129.248975, 16.202133)"><path style="stroke:none" d="M 1.046875 0 L 1.046875 -10.78125 L 3.015625 -10.78125 L 3.015625 -1.546875 L 7.796875 -1.546875 L 7.796875 0 Z M 1.046875 0 "/></g></g><g style="fill:#ffde59;fill-opacity:1;"><g transform="translate(91.40718, 37.592433)"><path style="stroke:none" d="M 3.5625 0 L 3.5625 -9.203125 L 0.421875 -9.203125 L 0.421875 -10.78125 L 8.6875 -10.78125 L 8.6875 -9.203125 L 5.53125 -9.203125 L 5.53125 0 Z M 3.5625 0 "/></g></g><g style="fill:#ffde59;fill-opacity:1;"><g transform="translate(99.754488, 37.592433)"><path style="stroke:none" d="M 1.046875 0 L 1.046875 -10.78125 L 5 -10.78125 C 5.863281 -10.78125 6.578125 -10.632812 7.140625 -10.34375 C 7.703125 -10.050781 8.117188 -9.65625 8.390625 -9.15625 C 8.671875 -8.65625 8.8125 -8.101562 8.8125 -7.5 C 8.8125 -6.84375 8.640625 -6.242188 8.296875 -5.703125 C 7.953125 -5.160156 7.414062 -4.765625 6.6875 -4.515625 L 8.921875 0 L 6.65625 0 L 4.65625 -4.25 L 3.015625 -4.25 L 3.015625 0 Z M 3.015625 -5.703125 L 4.890625 -5.703125 C 5.546875 -5.703125 6.023438 -5.859375 6.328125 -6.171875 C 6.640625 -6.492188 6.796875 -6.914062 6.796875 -7.4375 C 6.796875 -7.957031 6.644531 -8.367188 6.34375 -8.671875 C 6.039062 -8.984375 5.550781 -9.140625 4.875 -9.140625 L 3.015625 -9.140625 Z M 3.015625 -5.703125 "/></g></g><g style="fill:#ffde59;fill-opacity:1;"><g transform="translate(108.59462, 37.592433)"><path style="stroke:none" d="M 0.359375 0 L 4.296875 -10.78125 L 6.515625 -10.78125 L 10.453125 0 L 8.359375 0 L 7.5 -2.5 L 3.296875 -2.5 L 2.421875 0 Z M 3.84375 -4.03125 L 6.96875 -4.03125 L 5.390625 -8.515625 Z M 3.84375 -4.03125 "/></g></g><g style="fill:#ffde59;fill-opacity:1;"><g transform="translate(118.636023, 37.592433)"><path style="stroke:none" d="M 1.046875 0 L 1.046875 -10.78125 L 4.734375 -10.78125 C 5.992188 -10.78125 7.03125 -10.554688 7.84375 -10.109375 C 8.664062 -9.660156 9.273438 -9.035156 9.671875 -8.234375 C 10.066406 -7.429688 10.265625 -6.484375 10.265625 -5.390625 C 10.265625 -4.304688 10.066406 -3.359375 9.671875 -2.546875 C 9.273438 -1.742188 8.664062 -1.117188 7.84375 -0.671875 C 7.03125 -0.222656 5.992188 0 4.734375 0 Z M 3.015625 -1.6875 L 4.640625 -1.6875 C 5.546875 -1.6875 6.257812 -1.832031 6.78125 -2.125 C 7.300781 -2.425781 7.675781 -2.847656 7.90625 -3.390625 C 8.132812 -3.941406 8.25 -4.609375 8.25 -5.390625 C 8.25 -6.160156 8.132812 -6.820312 7.90625 -7.375 C 7.675781 -7.9375 7.300781 -8.363281 6.78125 -8.65625 C 6.257812 -8.957031 5.546875 -9.109375 4.640625 -9.109375 L 3.015625 -9.109375 Z M 3.015625 -1.6875 "/></g></g><g style="fill:#ffde59;fill-opacity:1;"><g transform="translate(128.831431, 37.592433)"><path style="stroke:none" d="M 1.046875 0 L 1.046875 -10.78125 L 8.09375 -10.78125 L 8.09375 -9.203125 L 3.015625 -9.203125 L 3.015625 -6.234375 L 7.625 -6.234375 L 7.625 -4.703125 L 3.015625 -4.703125 L 3.015625 -1.59375 L 8.09375 -1.59375 L 8.09375 0 Z M 1.046875 0 "/></g></g></g></g></g></svg>